# xmcd CD database file
#
# Track frame offsets:
#	150
#	27975
#	56640
#	96462
#	135130
#	172565
#	189392
#	221337
#	253197
#	290022
#
# Disc length: 4115 seconds
#
# Revision: 0
# Processed by: cddbd v1.5.2PL0 Copyright (c) Steve Scherf et al.
# Submitted via: CDex 1.70beta2
#
DISCID=8810110a
DTITLE=The Bill Evans Trio - Sunday at the village vanguard
DYEAR=1961
DGENRE=Jazz
TTITLE0=Gloria's Step
TTITLE1=My man's gone now
TTITLE2=Solar
TTITLE3=Alice In Wonderland (Take 2)
TTITLE4=All Of You (Take 2)
TTITLE5=Jade Visions (Take2)
TTITLE6=Gloria's Step (Take 3)
TTITLE7=Alice In Wonderland (Take 1)
TTITLE8=All Of You (Take 3)
TTITLE9=Jade Visions (Take 1)
EXTD=YEAR: 1961
EXTT0=
EXTT1=
EXTT2=
EXTT3=
EXTT4=
EXTT5=
EXTT6=
EXTT7=
EXTT8=
EXTT9=
PLAYORDER=
